                           <?xml version="1.0" encoding="UTF-8"?>
                            <svg class="logo" id="Capa_2" data-name="Capa 2" xmlns="http://www.w3.org/2000/svg" viewBox="0 0 157.15 40.01">
                            <defs>
                                <style>
                                .cls-1 {
                                    fill: #dadada;
                                }

                                .cls-1, .cls-2-header {
                                    stroke-width: 0px;
                                }

                                .cls-2-header {
                                    fill: #e84522;
                                }
                                </style>
                            </defs>
                            <g id="Capa_1-2" data-name="Capa 1">
                                <polygon class="cls-1" points="81.17 37.78 81.17 0 78.94 0 78.94 37.78 0 37.78 0 40.01 157.15 40.01 157.15 37.78 81.17 37.78"/>
                                <path class="cls-1" d="M92.61,26.92c0-1.07-.57-1.54-1.67-1.54s-1.88.61-1.89,2.19c0,1.59.8,2.29,1.92,2.29s1.65-.57,1.65-1.53v-.17h.76c0,.07,0,.14,0,.23,0,1.35-.79,2.18-2.42,2.18-1.61,0-2.71-.96-2.71-2.98,0-1.86,1.01-2.9,2.71-2.9s2.4.86,2.4,2.12c0,.11,0,.18,0,.29-.12,0-.25,0-.38,0-.14,0-.25,0-.38,0v-.17Z"/>
                                <path class="cls-1" d="M96.92,30.58c-1.68,0-2.73-1.07-2.73-2.99s1.09-2.91,2.73-2.91,2.73.99,2.73,2.91-1.05,2.99-2.73,2.99M98.86,27.61c0-1.5-.74-2.24-1.94-2.24s-1.95.73-1.95,2.24.74,2.27,1.95,2.27,1.94-.77,1.94-2.27"/>
                                <path class="cls-1" d="M105.48,24.78c0,.66-.02,1.63-.02,2.84s0,2.1,0,2.85h-.81c-.33-.58-1.61-2.39-2.61-3.79-.24-.37-.48-.76-.65-1.11h-.02c.03.47.05.93.05,1.35,0,1.82,0,3.06.02,3.56h-.74c0-.74.01-1.63.01-2.84s0-2.17-.01-2.84h.95c.28.49,1.64,2.34,2.55,3.68.2.3.42.69.59,1.04h.02c-.04-.44-.05-.86-.05-1.26,0-1.35-.02-2.9-.05-3.47h.74Z"/>
                                <path class="cls-1" d="M110.61,28.96c0-.58-.36-.91-1.76-1.09-1.57-.21-2.1-.73-2.1-1.65s.76-1.53,2.19-1.53c1.59,0,2.27.6,2.27,1.62,0,.15,0,.25,0,.4-.09,0-.22,0-.36,0s-.28,0-.36,0c0-.11,0-.24,0-.33,0-.66-.45-1.06-1.56-1.06-.95,0-1.41.3-1.41.89,0,.49.23.86,1.67,1.05,1.59.23,2.16.71,2.16,1.68,0,1.05-.77,1.63-2.27,1.63-1.66,0-2.43-.6-2.43-1.69,0-.14,0-.24.02-.37.1.02.23.02.36.02.16,0,.29,0,.4-.01,0,.08-.01.17-.01.24,0,.79.52,1.18,1.65,1.18s1.54-.34,1.54-.97"/>
                                <path class="cls-1" d="M116.31,24.78v.69c-.65-.02-1.29-.02-1.83-.02,0,2.25,0,4.52.02,5.02-.12,0-.29,0-.41,0-.11,0-.27,0-.39,0,.02-.49.02-2.76.02-5.02-.54,0-1.17,0-1.83.02v-.69h4.42Z"/>
                                <path class="cls-1" d="M120.44,28.1c.78.1,1.03.32,1.33,1.18.19.55.32.98.43,1.2h-.72c-.17,0-.2-.07-.3-.4-.43-1.41-.56-1.74-1.43-1.74h-1.7c0,.88.02,1.64.06,2.14h-.83c.01-.83.03-1.63.03-2.84s-.02-2.02-.03-2.84h2.51c1.3,0,2.03.52,2.03,1.7,0,.89-.44,1.43-1.38,1.58v.03ZM119.77,27.73c.86,0,1.3-.47,1.3-1.14,0-.85-.41-1.17-1.44-1.17-.31,0-1.14,0-1.56.03,0,.77,0,1.55,0,2.27.27,0,.96.01,1.71.01"/>
                                <path class="cls-1" d="M127.79,24.78c-.02.46-.02.91-.02,1.59,0,.49.01,1.21.01,1.86,0,1.49-.73,2.34-2.37,2.34s-2.38-.85-2.38-2.34c0-.64.02-1.36.02-1.86,0-.68,0-1.14-.02-1.59h.82c-.03.74-.05,2.53-.05,3.4,0,1.17.56,1.68,1.63,1.68s1.59-.52,1.59-1.69c0-.86-.01-2.68-.04-3.4h.81Z"/>
                                <path class="cls-1" d="M133.18,26.92c0-1.07-.57-1.54-1.67-1.54s-1.88.61-1.89,2.19c0,1.59.8,2.29,1.92,2.29s1.65-.57,1.65-1.53v-.17h.76c0,.07,0,.14,0,.23,0,1.35-.79,2.18-2.42,2.18-1.61,0-2.71-.96-2.71-2.98,0-1.86,1.01-2.9,2.71-2.9s2.4.86,2.4,2.12c0,.11,0,.18,0,.29-.12,0-.25,0-.38,0-.14,0-.25,0-.38,0v-.17Z"/>
                                <path class="cls-1" d="M138.93,24.78v.69c-.65-.02-1.29-.02-1.83-.02,0,2.25,0,4.52.02,5.02-.12,0-.29,0-.41,0-.11,0-.27,0-.39,0,.02-.49.02-2.76.02-5.02-.54,0-1.17,0-1.83.02v-.69h4.42Z"/>
                                <path class="cls-1" d="M141.94,30.58c-1.68,0-2.73-1.07-2.73-2.99s1.09-2.91,2.73-2.91,2.73.99,2.73,2.91-1.05,2.99-2.73,2.99M143.88,27.61c0-1.5-.74-2.24-1.94-2.24s-1.95.73-1.95,2.24.74,2.27,1.95,2.27,1.94-.77,1.94-2.27"/>
                                <path class="cls-1" d="M148.74,28.1c.78.1,1.03.32,1.34,1.18.19.55.32.98.43,1.2h-.72c-.17,0-.2-.07-.3-.4-.43-1.41-.56-1.74-1.43-1.74h-1.7c0,.88.02,1.64.06,2.14h-.83c.01-.83.03-1.63.03-2.84s-.02-2.02-.03-2.84h2.51c1.3,0,2.02.52,2.02,1.7,0,.89-.44,1.43-1.38,1.58v.03ZM148.07,27.73c.86,0,1.3-.47,1.3-1.14,0-.85-.41-1.17-1.44-1.17-.31,0-1.14,0-1.56.03,0,.77,0,1.55,0,2.27.27,0,.96.01,1.71.01"/>
                                <path class="cls-1" d="M155.61,30.47c-.07-.25-.28-.82-.53-1.49-.52,0-1.05-.02-1.46-.02-.37,0-.93,0-1.43,0-.25.66-.46,1.22-.55,1.49h-.86c.56-1.24,2-4.88,2.29-5.68h1.15c.34.84,1.72,4.32,2.34,5.68h-.93ZM153.14,26.51c-.21.55-.47,1.22-.72,1.87.41,0,.88,0,1.2,0,.34,0,.81,0,1.23,0-.25-.66-.52-1.35-.74-1.91-.24-.59-.39-.98-.48-1.26-.1.27-.24.67-.48,1.3"/>
                                <path class="cls-1" d="M55.39,4.76h-17.38c.06,1.99.1,4.18.12,6.72h15.78c.14,0,.27,0,.41,0,3.88,0,5.57,1.07,5.57,5.85s-1.8,6.2-5.61,6.2c-.92,0-1.73,0-2.51,0h-13.64c-.02,2.7-.06,4.98-.12,7.2h17.24c11.67,0,15.51-3.64,15.51-13.68,0-9.21-4.22-12.29-15.37-12.29"/>
                                <rect class="cls-2-header" x="38.18" y="13.7" width="7.59" height="7.58"/>
                                <path class="cls-1" d="M18.45,14.56c-7.1-.62-7.72-1.42-7.72-2.63,0-1.04.9-1.66,4.99-1.66,3.51,0,4.92.4,5.41,1.21h9.65c-.06-5.06-3.53-7.34-15.44-7.34C4.47,4.14.07,6.91.07,12.41c0,4.85,2.49,7.38,13.29,8.2,6.54.45,7.27,1.32,7.27,2.67,0,1.18-.87,1.83-5.33,1.83-3.51,0-4.99-.48-5.43-1.62H.01c0,.12-.01.25-.01.37,0,5.16,3.7,7.48,15.82,7.48s15.48-2.8,15.48-8.38-3.05-7.55-12.84-8.41"/>
                            </g>
                            </svg>